<svg xmlns="http://www.w3.org/2000/svg" viewBox="0 0 64 64" role="img" aria-label="CameraAccessTrust mark">
  <!-- Shield outline -->
  <path fill="#0E7C86" d="M32 4 L54 12 L54 30 C54 44 44 54 32 60 C20 54 10 44 10 30 L10 12 Z"/>
  <!-- Inner shield (navy) -->
  <path fill="#0F1B2D" d="M32 9 L49 15.5 L49 30 C49 41.5 41 50 32 55 C23 50 15 41.5 15 30 L15 15.5 Z"/>
  <!-- Lens rings -->
  <circle cx="32" cy="30" r="14" fill="none" stroke="#0E7C86" stroke-width="2.5"/>
  <circle cx="32" cy="30" r="9" fill="none" stroke="#B8C4D4" stroke-width="1.5"/>
  <circle cx="32" cy="30" r="4.5" fill="#0E7C86"/>
  <!-- Lock body over bottom of lens -->
  <rect x="26" y="42" width="12" height="9" rx="1.5" fill="#0E7C86"/>
  <!-- Lock shackle -->
  <path d="M29 42 V39.5 C29 37.6 30.3 36.5 32 36.5 C33.7 36.5 35 37.6 35 39.5 V42" fill="none" stroke="#0E7C86" stroke-width="2" stroke-linecap="round"/>
  <!-- Keyhole -->
  <circle cx="32" cy="45" r="1.4" fill="#0F1B2D"/>
  <rect x="31.3" y="45.5" width="1.4" height="2.5" rx="0.4" fill="#0F1B2D"/>
</svg>
